<svg xmlns="http://www.w3.org/2000/svg" id="canvas" viewBox="313.842 351.115 942.435 295.057"><path d="M 397.06,354.81 C 396.51 355.82, 396.05 356.97, 395.18 360.12 C 394.32 363.26, 394.20 365.22, 392.73 370.53 C 391.26 375.83, 390.52 378.70, 387.83 386.64 C 385.15 394.58, 383.73 399.58, 379.31 410.24 C 374.89 420.89, 371.56 427.26, 365.73 439.92 C 359.91 452.58, 356.34 460.24, 350.20 473.54 C 344.05 486.84, 340.36 494.19, 335.00 506.43 C 329.64 518.67, 326.89 525.26, 323.40 534.74 C 319.91 544.23, 318.61 548.25, 317.53 553.87 C 316.46 559.49, 316.65 561.12, 318.02 562.84 C 319.39 564.55, 320.86 564.49, 324.36 562.44 C 327.86 560.40, 330.28 558.01, 335.53 552.60 C 340.78 547.19, 343.94 543.31, 350.61 535.40 C 357.28 527.50, 360.97 522.66, 368.86 513.09 C 376.75 503.52, 381.28 497.76, 390.04 487.55 C 398.80 477.33, 403.66 471.92, 412.65 462.02 C 421.63 452.12, 426.50 447.12, 434.96 438.06 C 443.42 428.99, 447.66 424.58, 454.93 416.71 C 462.20 408.84, 465.50 405.38, 471.31 398.72 C 477.12 392.06, 479.85 388.56, 483.97 383.40 C 488.08 378.24, 489.48 376.17, 491.88 372.93 C 494.28 369.69, 494.92 368.97, 495.97 367.20 C 497.02 365.43, 497.03 364.85, 497.11 364.08 C 497.19 363.30, 496.56 363.45, 496.38 363.33 C 496.20 363.22, 496.18 363.37, 496.19 363.49 C 496.21 363.60, 496.71 363.31, 496.44 363.90 C 496.17 364.50, 495.94 364.82, 494.83 366.48 C 493.72 368.14, 493.20 368.94, 490.89 372.22 C 488.58 375.49, 487.30 377.65, 483.28 382.86 C 479.26 388.07, 476.55 391.58, 470.79 398.27 C 465.04 404.96, 461.75 408.43, 454.50 416.31 C 447.26 424.20, 443.02 428.62, 434.57 437.69 C 426.12 446.76, 421.25 451.77, 412.26 461.67 C 403.27 471.57, 398.40 476.99, 389.63 487.19 C 380.86 497.40, 376.31 503.16, 368.39 512.70 C 360.47 522.24, 356.73 527.06, 350.02 534.90 C 343.30 542.74, 340.05 546.58, 334.80 551.89 C 329.55 557.21, 327.01 559.37, 323.77 561.47 C 320.53 563.57, 319.70 563.88, 318.61 562.39 C 317.52 560.90, 317.25 559.51, 318.33 554.02 C 319.40 548.54, 320.55 544.43, 323.98 534.96 C 327.41 525.48, 330.14 518.88, 335.48 506.64 C 340.81 494.40, 344.50 487.05, 350.66 473.75 C 356.81 460.45, 360.38 452.80, 366.24 440.15 C 372.09 427.50, 375.44 421.14, 379.93 410.50 C 384.42 399.85, 385.88 394.86, 388.69 386.93 C 391.49 379.01, 392.34 376.17, 393.96 370.89 C 395.59 365.61, 396.03 363.71, 396.82 360.55 C 397.61 357.38, 397.88 356.20, 397.93 355.05 C 397.97 353.90, 397.61 353.80, 397.06 354.81" style="stroke: black; fill: black;"/><path d="M 437.30,428.03 C 437.27 428.41, 437.33 428.51, 437.74 429.47 C 438.14 430.43, 438.37 431.06, 439.33 432.84 C 440.29 434.61, 441.07 435.91, 442.53 438.33 C 443.98 440.76, 445.32 442.16, 446.61 444.96 C 447.90 447.77, 448.31 449.42, 448.98 452.36 C 449.65 455.31, 449.79 456.72, 449.96 459.69 C 450.14 462.66, 450.19 464.11, 449.85 467.21 C 449.51 470.32, 449.17 472.27, 448.25 475.21 C 447.33 478.14, 446.86 479.34, 445.25 481.89 C 443.64 484.44, 442.57 485.54, 440.22 487.97 C 437.88 490.39, 436.32 491.75, 433.52 494.00 C 430.71 496.26, 428.95 497.12, 426.22 499.25 C 423.48 501.37, 422.08 502.41, 419.85 504.64 C 417.62 506.86, 416.59 507.93, 415.07 510.37 C 413.55 512.82, 412.86 514.27, 412.25 516.88 C 411.64 519.49, 411.46 520.99, 412.00 523.43 C 412.54 525.87, 413.29 527.15, 414.96 529.06 C 416.63 530.96, 417.69 531.78, 420.36 532.95 C 423.02 534.13, 424.57 534.59, 428.29 534.94 C 432.01 535.28, 434.29 535.34, 438.95 534.68 C 443.60 534.01, 446.09 533.29, 451.55 531.62 C 457.00 529.95, 460.12 528.81, 466.21 526.33 C 472.30 523.86, 475.87 522.35, 482.01 519.25 C 488.15 516.16, 491.22 514.40, 496.91 510.84 C 502.59 507.29, 505.48 505.20, 510.44 501.47 C 515.39 497.74, 517.86 495.75, 521.68 492.19 C 525.50 488.63, 527.04 486.99, 529.54 483.66 C 532.04 480.34, 533.10 478.66, 534.17 475.57 C 535.25 472.49, 535.45 470.75, 534.93 468.22 C 534.40 465.69, 533.45 464.27, 531.56 462.92 C 529.67 461.58, 528.24 461.06, 525.47 461.49 C 522.70 461.92, 520.85 462.89, 517.71 465.09 C 514.57 467.29, 513.12 468.96, 509.77 472.50 C 506.43 476.04, 504.35 478.37, 500.99 482.79 C 497.62 487.21, 495.85 489.80, 492.97 494.61 C 490.08 499.41, 488.46 501.98, 486.58 506.80 C 484.69 511.62, 483.94 514.31, 483.53 518.71 C 483.12 523.11, 483.18 525.25, 484.53 528.80 C 485.88 532.34, 487.19 534.03, 490.28 536.43 C 493.37 538.83, 495.43 539.76, 499.96 540.80 C 504.50 541.84, 507.28 541.97, 512.95 541.65 C 518.62 541.33, 521.97 540.77, 528.32 539.21 C 534.66 537.65, 538.20 536.56, 544.68 533.85 C 551.17 531.13, 554.41 529.26, 560.74 525.61 C 567.07 521.97, 570.51 519.76, 576.34 515.61 C 582.16 511.45, 585.05 508.94, 589.87 504.85 C 594.69 500.76, 597.01 498.66, 600.45 495.16 C 603.89 491.66, 605.65 489.74, 607.08 487.36 C 608.52 484.98, 608.30 483.65, 607.62 483.25 C 606.95 482.85, 605.56 483.32, 603.70 485.34 C 601.85 487.36, 600.39 489.55, 598.33 493.34 C 596.27 497.13, 594.95 499.75, 593.40 504.29 C 591.85 508.83, 591.15 511.58, 590.56 516.06 C 589.97 520.54, 589.81 522.93, 590.44 526.69 C 591.08 530.44, 591.82 532.19, 593.72 534.84 C 595.63 537.49, 597.07 538.53, 599.98 539.93 C 602.88 541.33, 604.55 541.82, 608.24 541.84 C 611.93 541.86, 614.08 541.53, 618.43 540.01 C 622.79 538.48, 625.12 537.12, 630.01 534.21 C 634.90 531.30, 637.71 529.44, 642.88 525.47 C 648.05 521.50, 651.02 519.08, 655.84 514.36 C 660.67 509.64, 663.08 506.72, 666.99 501.87 C 670.90 497.02, 672.60 494.37, 675.39 490.09 C 678.19 485.81, 679.66 483.65, 680.97 480.46 C 682.28 477.26, 682.35 475.90, 681.96 474.11 C 681.57 472.31, 680.44 471.72, 679.03 471.49 C 677.61 471.25, 676.38 471.75, 674.88 472.93 C 673.39 474.10, 672.31 475.38, 671.56 477.39 C 670.81 479.39, 670.54 480.79, 671.15 482.94 C 671.77 485.08, 672.51 486.50, 674.62 488.11 C 676.73 489.73, 678.19 490.53, 681.70 491.01 C 685.20 491.50, 687.51 491.26, 692.13 490.54 C 696.75 489.83, 699.59 489.01, 704.80 487.43 C 710.02 485.85, 712.95 484.73, 718.19 482.65 C 723.44 480.57, 726.18 479.16, 731.02 477.04 C 735.85 474.91, 738.34 473.70, 742.37 472.03 C 746.41 470.37, 748.34 469.52, 751.17 468.71 C 754.00 467.90, 755.31 467.68, 756.52 468.00 C 757.74 468.32, 757.96 468.44, 757.26 470.32 C 756.57 472.21, 755.49 473.81, 753.05 477.42 C 750.61 481.03, 748.66 483.67, 745.07 488.38 C 741.48 493.10, 738.78 496.13, 735.09 501.00 C 731.41 505.87, 729.24 508.55, 726.67 512.72 C 724.09 516.89, 722.75 518.99, 722.21 521.83 C 721.67 524.66, 722.19 525.83, 723.96 526.89 C 725.72 527.96, 727.34 528.05, 731.03 527.16 C 734.71 526.26, 737.21 525.02, 742.37 522.41 C 747.53 519.79, 750.68 517.83, 756.83 514.08 C 762.97 510.33, 766.56 508.04, 773.09 503.66 C 779.62 499.28, 783.28 496.58, 789.48 492.17 C 795.69 487.76, 799.11 485.14, 804.10 481.62 C 809.09 478.10, 811.43 476.45, 814.44 474.56 C 817.45 472.68, 818.20 472.10, 819.13 472.21 C 820.07 472.33, 819.95 473.01, 819.14 475.14 C 818.33 477.28, 817.24 479.23, 815.10 482.87 C 812.97 486.51, 811.07 489.10, 808.48 493.34 C 805.89 497.58, 804.31 500.20, 802.14 504.06 C 799.97 507.93, 798.54 509.94, 797.61 512.66 C 796.67 515.39, 796.49 516.74, 797.46 517.68 C 798.44 518.63, 799.57 518.60, 802.47 517.39 C 805.36 516.18, 807.39 514.64, 811.94 511.64 C 816.48 508.63, 819.42 506.28, 825.18 502.35 C 830.95 498.42, 835.10 495.68, 840.77 492.00 C 846.44 488.31, 849.56 486.22, 853.55 483.92 C 857.53 481.63, 859.02 480.89, 860.68 480.54 C 862.35 480.18, 862.32 480.49, 861.88 482.14 C 861.45 483.80, 860.11 485.56, 858.51 488.81 C 856.92 492.06, 855.57 494.58, 853.89 498.40 C 852.21 502.22, 850.93 504.45, 850.11 507.91 C 849.29 511.36, 848.83 513.09, 849.78 515.67 C 850.74 518.25, 851.93 519.79, 854.88 520.81 C 857.83 521.82, 860.02 521.66, 864.53 520.75 C 869.04 519.84, 871.74 518.84, 877.44 516.27 C 883.13 513.70, 886.60 511.81, 893.02 507.89 C 899.44 503.97, 902.83 501.42, 909.54 496.67 C 916.26 491.92, 920.01 489.23, 926.61 484.13 C 933.20 479.03, 936.90 476.18, 942.52 471.17 C 948.13 466.15, 950.46 463.48, 954.68 459.06 C 958.90 454.63, 960.70 452.51, 963.64 449.03 C 966.58 445.54, 967.65 444.16, 969.38 441.63 C 971.12 439.10, 971.56 437.96, 972.32 436.38 C 973.08 434.80, 973.23 434.29, 973.18 433.75 C 973.13 433.21, 972.65 433.35, 972.09 433.68 C 971.53 434.01, 970.91 434.19, 970.39 435.41 C 969.87 436.64, 969.68 437.82, 969.48 439.79 C 969.28 441.77, 969.60 442.80, 969.40 445.29 C 969.21 447.78, 969.12 449.17, 968.49 452.24 C 967.87 455.31, 967.62 456.75, 966.29 460.61 C 964.96 464.48, 964.22 466.92, 961.85 471.57 C 959.49 476.22, 957.98 478.72, 954.47 483.86 C 950.96 488.99, 948.74 491.85, 944.29 497.26 C 939.85 502.67, 937.10 505.72, 932.24 510.91 C 927.37 516.10, 924.69 518.79, 919.97 523.21 C 915.25 527.63, 912.53 529.84, 908.66 533.01 C 904.78 536.19, 902.84 537.54, 900.61 539.08 C 898.38 540.62, 897.88 541.10, 897.52 540.70 C 897.15 540.31, 897.38 539.54, 898.78 537.11 C 900.18 534.68, 901.28 532.71, 904.51 528.54 C 907.75 524.37, 909.95 521.66, 914.97 516.27 C 919.98 510.89, 923.34 507.61, 929.58 501.62 C 935.83 495.63, 939.54 492.23, 946.20 486.32 C 952.85 480.42, 956.35 477.44, 962.87 472.10 C 969.38 466.76, 972.80 464.12, 978.76 459.63 C 984.72 455.14, 987.60 453.06, 992.68 449.65 C 997.75 446.24, 999.94 444.88, 1004.12 442.58 C 1008.30 440.29, 1010.37 439.65, 1013.58 438.19 C 1016.78 436.73, 1018.56 436.00, 1020.17 435.27 C 1021.77 434.54, 1022.01 434.29, 1021.59 434.54 C 1021.17 434.79, 1020.37 435.00, 1018.07 436.52 C 1015.78 438.03, 1014.20 439.38, 1010.12 442.13 C 1006.03 444.88, 1003.22 446.75, 997.67 450.28 C 992.11 453.80, 988.41 455.83, 982.34 459.76 C 976.27 463.68, 972.88 465.90, 967.32 469.90 C 961.77 473.90, 958.83 475.99, 954.58 479.75 C 950.33 483.52, 948.53 485.35, 946.07 488.72 C 943.61 492.09, 942.61 493.67, 942.28 496.59 C 941.96 499.51, 942.61 500.99, 944.46 503.32 C 946.32 505.65, 948.00 506.59, 951.55 508.24 C 955.10 509.89, 957.38 510.65, 962.21 511.58 C 967.04 512.50, 970.16 512.52, 975.69 512.87 C 981.22 513.22, 984.14 513.44, 989.86 513.33 C 995.58 513.22, 998.62 513.06, 1004.29 512.33 C 1009.96 511.60, 1012.95 511.10, 1018.22 509.68 C 1023.49 508.26, 1025.92 507.17, 1030.64 505.21 C 1035.36 503.26, 1037.72 502.23, 1041.80 499.91 C 1045.88 497.59, 1048.06 496.02, 1051.06 493.60 C 1054.05 491.17, 1055.49 489.62, 1056.76 487.79 C 1058.03 485.96, 1058.21 484.79, 1057.40 484.45 C 1056.59 484.11, 1055.39 484.25, 1052.73 486.08 C 1050.08 487.92, 1047.73 489.95, 1044.12 493.64 C 1040.51 497.34, 1037.92 500.18, 1034.67 504.56 C 1031.42 508.94, 1029.76 511.56, 1027.89 515.54 C 1026.02 519.52, 1025.19 521.42, 1025.32 524.46 C 1025.45 527.49, 1026.39 528.91, 1028.52 530.70 C 1030.64 532.50, 1032.30 533.21, 1035.95 533.42 C 1039.60 533.63, 1042.18 533.14, 1046.77 531.76 C 1051.37 530.38, 1054.05 529.09, 1058.92 526.53 C 1063.79 523.97, 1066.45 522.30, 1071.12 518.96 C 1075.79 515.62, 1078.36 513.55, 1082.26 509.83 C 1086.17 506.10, 1088.14 504.10, 1090.64 500.34 C 1093.13 496.59, 1094.09 494.49, 1094.75 491.07 C 1095.41 487.66, 1095.26 485.64, 1093.93 483.26 C 1092.59 480.87, 1091.05 479.98, 1088.09 479.14 C 1085.14 478.29, 1082.62 478.42, 1079.13 479.03 C 1075.64 479.64, 1073.16 480.49, 1070.64 482.21 C 1068.13 483.92, 1066.89 485.51, 1066.55 487.61 C 1066.21 489.71, 1066.70 491.37, 1068.94 492.71 C 1071.19 494.05, 1073.17 494.25, 1077.77 494.30 C 1082.37 494.36, 1085.50 493.91, 1091.95 492.99 C 1098.40 492.06, 1102.58 491.32, 1110.01 489.67 C 1117.45 488.02, 1121.80 486.61, 1129.14 484.74 C 1136.47 482.87, 1140.64 481.59, 1146.69 480.32 C 1152.74 479.06, 1155.84 478.52, 1159.38 478.41 C 1162.92 478.31, 1163.76 478.35, 1164.39 479.79 C 1165.01 481.24, 1164.15 482.46, 1162.49 485.64 C 1160.82 488.82, 1159.23 491.24, 1156.04 495.70 C 1152.85 500.15, 1149.98 503.08, 1146.54 507.91 C 1143.09 512.73, 1140.95 515.67, 1138.81 519.83 C 1136.67 523.98, 1135.67 525.97, 1135.84 528.67 C 1136.00 531.36, 1136.91 532.55, 1139.64 533.29 C 1142.38 534.04, 1144.85 533.56, 1149.51 532.40 C 1154.18 531.24, 1157.05 530.23, 1162.97 527.51 C 1168.88 524.78, 1172.49 522.63, 1179.08 518.79 C 1185.67 514.94, 1189.44 512.46, 1195.90 508.28 C 1202.37 504.11, 1205.96 501.48, 1211.42 497.91 C 1216.87 494.35, 1219.74 492.52, 1223.19 490.45 C 1226.65 488.38, 1227.87 487.52, 1228.69 487.56 C 1229.51 487.61, 1228.88 487.98, 1227.30 490.68 C 1225.71 493.37, 1224.39 495.89, 1220.76 501.03 C 1217.13 506.18, 1214.45 509.60, 1209.17 516.38 C 1203.88 523.16, 1200.66 527.07, 1194.33 534.93 C 1188.00 542.80, 1184.25 547.26, 1177.50 555.70 C 1170.75 564.14, 1167.05 568.71, 1160.58 577.14 C 1154.10 585.56, 1150.88 590.14, 1145.14 597.81 C 1139.39 605.47, 1136.84 609.25, 1131.86 615.45 C 1126.87 621.65, 1124.47 624.36, 1120.21 628.81 C 1115.94 633.26, 1113.67 635.10, 1110.52 637.70 C 1107.38 640.31, 1106.10 641.12, 1104.48 641.84 C 1102.86 642.56, 1102.46 642.30, 1102.43 641.30 C 1102.40 640.30, 1102.66 639.36, 1104.32 636.85 C 1105.97 634.34, 1107.24 632.47, 1110.71 628.77 C 1114.18 625.08, 1116.38 622.95, 1121.66 618.38 C 1126.94 613.81, 1130.06 610.85, 1137.10 605.93 C 1144.15 601.01, 1148.60 598.66, 1156.89 593.78 C 1165.17 588.90, 1169.61 586.35, 1178.51 581.53 C 1187.41 576.71, 1192.28 574.13, 1201.36 569.67 C 1210.45 565.21, 1215.94 562.93, 1223.92 559.23 C 1231.91 555.54, 1235.68 553.84, 1241.27 551.19 C 1246.85 548.55, 1249.80 547.17, 1251.85 546.00 C 1253.90 544.83, 1253.70 544.44, 1251.52 545.33 C 1249.34 546.22, 1246.51 547.82, 1240.92 550.47 C 1235.34 553.11, 1231.57 554.82, 1223.60 558.54 C 1215.63 562.25, 1210.14 564.57, 1201.06 569.04 C 1191.97 573.52, 1187.09 576.11, 1178.18 580.92 C 1169.27 585.74, 1164.82 588.27, 1156.50 593.13 C 1148.19 597.98, 1143.72 600.33, 1136.60 605.21 C 1129.49 610.09, 1126.34 613.04, 1120.95 617.54 C 1115.55 622.04, 1113.28 624.06, 1109.62 627.71 C 1105.96 631.36, 1104.25 633.05, 1102.63 635.80 C 1101.02 638.56, 1101.08 640.05, 1101.53 641.48 C 1101.98 642.92, 1102.92 643.52, 1104.88 642.97 C 1106.85 642.41, 1108.15 641.40, 1111.35 638.69 C 1114.56 635.99, 1116.68 634.02, 1120.90 629.46 C 1125.12 624.91, 1127.50 622.18, 1132.46 615.93 C 1137.42 609.68, 1139.96 605.90, 1145.69 598.22 C 1151.41 590.54, 1154.63 585.95, 1161.09 577.53 C 1167.56 569.11, 1171.26 564.54, 1178.02 556.11 C 1184.79 547.69, 1188.53 543.23, 1194.91 535.41 C 1201.29 527.58, 1204.54 523.70, 1209.92 516.98 C 1215.29 510.25, 1218.04 506.88, 1221.78 501.76 C 1225.51 496.64, 1227.19 494.31, 1228.59 491.36 C 1230.00 488.42, 1230.02 487.43, 1228.81 487.02 C 1227.60 486.61, 1226.13 487.32, 1222.54 489.32 C 1218.94 491.32, 1216.26 493.39, 1210.83 497.02 C 1205.40 500.65, 1201.83 503.29, 1195.38 507.47 C 1188.93 511.65, 1185.15 514.12, 1178.57 517.91 C 1171.99 521.69, 1168.34 523.78, 1162.46 526.39 C 1156.58 529.01, 1153.66 529.89, 1149.16 530.98 C 1144.67 532.07, 1142.38 532.32, 1139.98 531.85 C 1137.59 531.38, 1137.17 530.90, 1137.20 528.63 C 1137.23 526.36, 1138.02 524.48, 1140.12 520.51 C 1142.22 516.53, 1144.27 513.52, 1147.70 508.74 C 1151.13 503.95, 1154.04 501.07, 1157.28 496.58 C 1160.51 492.10, 1162.28 489.77, 1163.88 486.33 C 1165.47 482.89, 1166.15 481.23, 1165.25 479.39 C 1164.35 477.55, 1163.13 477.14, 1159.37 477.11 C 1155.61 477.09, 1152.55 477.92, 1146.46 479.25 C 1140.36 480.59, 1136.23 481.91, 1128.89 483.79 C 1121.56 485.67, 1117.21 487.07, 1109.79 488.66 C 1102.37 490.25, 1098.18 490.93, 1091.78 491.75 C 1085.39 492.56, 1082.21 492.82, 1077.80 492.72 C 1073.39 492.62, 1071.71 492.20, 1069.74 491.24 C 1067.78 490.28, 1067.52 489.32, 1067.96 487.92 C 1068.39 486.51, 1069.60 485.57, 1071.92 484.23 C 1074.24 482.88, 1076.41 481.84, 1079.54 481.21 C 1082.68 480.58, 1085.00 480.52, 1087.60 481.09 C 1090.19 481.66, 1091.40 482.12, 1092.51 484.06 C 1093.62 485.99, 1093.76 487.66, 1093.15 490.76 C 1092.54 493.87, 1091.82 495.94, 1089.46 499.57 C 1087.11 503.20, 1085.19 505.23, 1081.38 508.90 C 1077.56 512.57, 1075.00 514.65, 1070.38 517.93 C 1065.76 521.21, 1063.10 522.85, 1058.29 525.31 C 1053.47 527.78, 1050.78 528.97, 1046.33 530.24 C 1041.88 531.51, 1039.39 531.81, 1036.04 531.66 C 1032.68 531.50, 1031.36 530.90, 1029.55 529.45 C 1027.74 528.00, 1027.03 527.05, 1026.97 524.40 C 1026.91 521.75, 1027.47 519.97, 1029.27 516.19 C 1031.06 512.41, 1032.71 509.77, 1035.93 505.51 C 1039.16 501.25, 1041.79 498.47, 1045.39 494.90 C 1048.99 491.33, 1051.55 489.67, 1053.94 487.67 C 1056.33 485.67, 1057.02 485.07, 1057.34 484.89 C 1057.65 484.70, 1056.99 485.28, 1055.51 486.76 C 1054.04 488.23, 1052.84 489.87, 1049.96 492.26 C 1047.08 494.64, 1045.06 496.34, 1041.10 498.70 C 1037.13 501.06, 1034.79 502.08, 1030.15 504.05 C 1025.51 506.01, 1023.10 507.10, 1017.90 508.52 C 1012.70 509.94, 1009.75 510.43, 1004.14 511.15 C 998.53 511.87, 995.51 512.03, 989.84 512.11 C 984.17 512.19, 981.25 511.94, 975.78 511.53 C 970.32 511.12, 967.21 511.04, 962.51 510.07 C 957.81 509.09, 955.62 508.25, 952.28 506.68 C 948.94 505.10, 947.52 504.18, 945.83 502.20 C 944.14 500.22, 943.58 499.30, 943.84 496.76 C 944.11 494.22, 944.86 492.74, 947.16 489.51 C 949.46 486.27, 951.18 484.35, 955.33 480.59 C 959.49 476.84, 962.41 474.73, 967.93 470.74 C 973.45 466.75, 976.84 464.53, 982.92 460.66 C 989.00 456.78, 992.71 454.77, 998.33 451.35 C 1003.95 447.92, 1006.83 446.16, 1011.03 443.54 C 1015.23 440.92, 1017.13 440.01, 1019.34 438.25 C 1021.54 436.49, 1022.00 435.63, 1022.08 434.76 C 1022.15 433.89, 1021.56 433.53, 1019.73 433.92 C 1017.89 434.31, 1016.13 435.18, 1012.89 436.71 C 1009.65 438.23, 1007.69 439.12, 1003.53 441.54 C 999.38 443.97, 997.18 445.35, 992.12 448.83 C 987.06 452.31, 984.19 454.41, 978.24 458.94 C 972.29 463.47, 968.88 466.12, 962.36 471.48 C 955.84 476.84, 952.34 479.82, 945.66 485.72 C 938.98 491.62, 935.27 495.02, 928.97 500.98 C 922.67 506.94, 919.29 510.18, 914.17 515.51 C 909.04 520.84, 906.76 523.47, 903.36 527.62 C 899.96 531.77, 898.41 533.57, 897.16 536.27 C 895.91 538.97, 896.25 540.28, 897.11 541.11 C 897.97 541.94, 898.99 541.86, 901.46 540.43 C 903.94 539.01, 905.62 537.27, 909.47 533.98 C 913.32 530.69, 915.99 528.46, 920.69 523.98 C 925.39 519.50, 928.09 516.80, 932.97 511.59 C 937.85 506.38, 940.60 503.34, 945.09 497.92 C 949.59 492.51, 951.83 489.66, 955.43 484.52 C 959.03 479.38, 960.58 476.87, 963.08 472.21 C 965.57 467.55, 966.40 465.10, 967.90 461.20 C 969.41 457.31, 969.78 455.86, 970.62 452.74 C 971.45 449.61, 971.70 448.12, 972.06 445.58 C 972.42 443.04, 972.27 441.96, 972.41 440.04 C 972.54 438.13, 972.64 437.19, 972.73 436.02 C 972.83 434.84, 972.91 434.68, 972.88 434.18 C 972.86 433.68, 972.98 433.22, 972.59 433.50 C 972.20 433.79, 971.86 434.17, 970.94 435.61 C 970.01 437.04, 969.63 438.17, 967.98 440.69 C 966.33 443.22, 965.49 444.71, 962.68 448.25 C 959.87 451.78, 958.10 453.92, 953.95 458.37 C 949.80 462.82, 947.50 465.48, 941.92 470.50 C 936.35 475.52, 932.66 478.37, 926.08 483.46 C 919.51 488.55, 915.75 491.23, 909.04 495.95 C 902.32 500.66, 898.92 503.19, 892.50 507.03 C 886.08 510.87, 882.59 512.70, 876.94 515.14 C 871.29 517.59, 868.54 518.46, 864.24 519.26 C 859.94 520.06, 858.01 519.96, 855.44 519.14 C 852.87 518.31, 852.06 517.27, 851.37 515.12 C 850.68 512.97, 851.10 511.56, 852.00 508.39 C 852.89 505.22, 854.16 503.01, 855.84 499.27 C 857.52 495.53, 858.96 493.07, 860.41 489.68 C 861.86 486.29, 863.07 484.33, 863.10 482.30 C 863.13 480.26, 862.60 479.41, 860.56 479.50 C 858.52 479.60, 856.97 480.46, 852.88 482.76 C 848.79 485.06, 845.80 487.29, 840.12 491.01 C 834.44 494.72, 830.28 497.44, 824.48 501.31 C 818.68 505.19, 815.68 507.49, 811.12 510.38 C 806.57 513.27, 804.35 514.40, 801.71 515.76 C 799.08 517.12, 798.43 517.66, 797.96 517.18 C 797.49 516.70, 798.22 515.82, 799.35 513.36 C 800.49 510.91, 801.51 508.72, 803.64 504.90 C 805.76 501.08, 807.34 498.47, 809.96 494.26 C 812.59 490.04, 814.61 487.56, 816.76 483.83 C 818.90 480.09, 820.19 478.05, 820.70 475.59 C 821.21 473.13, 820.70 471.95, 819.30 471.51 C 817.91 471.07, 816.90 471.54, 813.73 473.39 C 810.57 475.23, 808.43 477.13, 803.47 480.73 C 798.51 484.34, 795.11 486.97, 788.93 491.40 C 782.75 495.82, 779.10 498.52, 772.56 502.87 C 766.03 507.22, 762.42 509.48, 756.26 513.14 C 750.10 516.80, 746.89 518.68, 741.76 521.17 C 736.63 523.65, 734.07 524.61, 730.61 525.56 C 727.16 526.52, 725.87 526.60, 724.49 525.93 C 723.12 525.25, 723.05 524.67, 723.72 522.17 C 724.40 519.68, 725.37 517.53, 727.86 513.45 C 730.34 509.38, 732.47 506.63, 736.14 501.79 C 739.82 496.96, 742.57 493.96, 746.23 489.28 C 749.90 484.60, 751.98 482.10, 754.48 478.39 C 756.99 474.68, 758.27 473.03, 758.76 470.75 C 759.25 468.46, 758.54 467.71, 756.92 466.95 C 755.31 466.19, 753.73 466.20, 750.71 466.95 C 747.68 467.70, 745.84 468.90, 741.80 470.68 C 737.75 472.46, 735.30 473.69, 730.49 475.85 C 725.67 478.00, 722.94 479.41, 717.72 481.45 C 712.50 483.50, 709.57 484.59, 704.40 486.09 C 699.24 487.58, 696.38 488.33, 691.90 488.92 C 687.41 489.51, 685.18 489.52, 681.99 489.02 C 678.80 488.51, 677.69 487.72, 675.94 486.39 C 674.19 485.06, 673.66 483.99, 673.25 482.37 C 672.84 480.75, 673.28 479.85, 673.90 478.28 C 674.52 476.71, 675.36 475.65, 676.36 474.53 C 677.37 473.40, 678.06 472.69, 678.93 472.64 C 679.80 472.60, 680.61 472.86, 680.73 474.30 C 680.84 475.74, 680.78 476.82, 679.50 479.84 C 678.22 482.87, 677.01 485.14, 674.33 489.41 C 671.66 493.68, 669.98 496.35, 666.13 501.18 C 662.29 506.02, 659.88 508.92, 655.09 513.59 C 650.30 518.27, 647.34 520.66, 642.19 524.56 C 637.04 528.46, 634.20 530.30, 629.35 533.10 C 624.50 535.90, 622.16 537.17, 617.94 538.57 C 613.72 539.97, 611.69 540.16, 608.26 540.10 C 604.82 540.04, 603.39 539.53, 600.77 538.27 C 598.15 537.01, 596.90 536.17, 595.15 533.80 C 593.41 531.43, 592.66 529.92, 592.05 526.41 C 591.45 522.91, 591.53 520.58, 592.12 516.27 C 592.71 511.96, 593.43 509.25, 595.02 504.86 C 596.61 500.47, 598.03 497.96, 600.08 494.31 C 602.13 490.66, 603.78 488.75, 605.27 486.59 C 606.75 484.44, 607.39 483.55, 607.49 483.52 C 607.58 483.50, 607.33 484.31, 605.74 486.46 C 604.15 488.61, 602.83 490.75, 599.52 494.27 C 596.21 497.79, 593.93 499.94, 589.19 504.05 C 584.44 508.16, 581.56 510.68, 575.78 514.82 C 569.99 518.97, 566.56 521.17, 560.27 524.79 C 553.97 528.41, 550.74 530.25, 544.30 532.92 C 537.86 535.59, 534.34 536.64, 528.06 538.13 C 521.77 539.62, 518.44 540.13, 512.89 540.39 C 507.34 540.65, 504.62 540.44, 500.29 539.41 C 495.95 538.38, 494.08 537.47, 491.21 535.24 C 488.33 533.01, 487.18 531.55, 485.92 528.27 C 484.66 524.99, 484.54 523.04, 484.91 518.84 C 485.29 514.64, 485.96 511.99, 487.79 507.27 C 489.61 502.56, 491.20 500.00, 494.06 495.27 C 496.92 490.53, 498.70 487.95, 502.07 483.62 C 505.44 479.29, 507.56 476.99, 510.91 473.60 C 514.25 470.20, 515.80 468.66, 518.78 466.65 C 521.77 464.63, 523.47 463.99, 525.83 463.53 C 528.19 463.06, 529.12 463.31, 530.59 464.32 C 532.05 465.32, 532.77 466.43, 533.16 468.57 C 533.55 470.71, 533.50 472.17, 532.55 475.02 C 531.60 477.87, 530.75 479.57, 528.41 482.83 C 526.07 486.09, 524.59 487.76, 520.86 491.32 C 517.14 494.88, 514.69 496.88, 509.79 500.62 C 504.89 504.35, 502.02 506.44, 496.37 509.98 C 490.72 513.53, 487.66 515.27, 481.55 518.33 C 475.43 521.39, 471.87 522.88, 465.79 525.30 C 459.72 527.71, 456.59 528.82, 451.18 530.39 C 445.77 531.96, 443.28 532.61, 438.75 533.14 C 434.21 533.67, 431.99 533.50, 428.50 533.05 C 425.00 532.61, 423.66 532.00, 421.26 530.92 C 418.87 529.84, 417.97 529.25, 416.53 527.66 C 415.08 526.08, 414.48 525.04, 414.05 522.98 C 413.62 520.93, 413.78 519.68, 414.36 517.39 C 414.93 515.09, 415.53 513.78, 416.92 511.52 C 418.30 509.25, 419.19 508.21, 421.29 506.07 C 423.39 503.92, 424.74 502.90, 427.43 500.80 C 430.12 498.69, 431.90 497.82, 434.74 495.52 C 437.58 493.23, 439.18 491.83, 441.62 489.32 C 444.06 486.81, 445.22 485.66, 446.94 482.97 C 448.67 480.27, 449.24 478.94, 450.24 475.84 C 451.24 472.73, 451.57 470.70, 451.93 467.44 C 452.29 464.19, 452.20 462.68, 452.03 459.57 C 451.87 456.46, 451.75 455.02, 451.11 451.90 C 450.48 448.79, 450.06 447.01, 448.85 444.00 C 447.65 440.99, 446.53 439.37, 445.10 436.84 C 443.68 434.31, 442.91 433.04, 441.74 431.36 C 440.58 429.67, 440.05 429.18, 439.28 428.42 C 438.51 427.66, 438.30 427.64, 437.91 427.56 C 437.51 427.48, 437.34 427.65, 437.30 428.03" style="stroke: black; fill: black;"/></svg>